<?xml version="1.0" standalone="no"?>
<!DOCTYPE svg PUBLIC "-//W3C//DTD SVG 20010904//EN"
 "http://www.w3.org/TR/2001/REC-SVG-20010904/DTD/svg10.dtd">
<svg version="1.0" xmlns="http://www.w3.org/2000/svg"
 width="512.000000pt" height="512.000000pt" viewBox="0 0 512.000000 512.000000"
 preserveAspectRatio="xMidYMid meet">
<metadata>
Created by potrace 1.16, written by Peter Selinger 2001-2019
</metadata>
<g transform="translate(0.000000,512.000000) scale(0.100000,-0.100000)"
fill="#000000" stroke="none">
<path d="M137 4910 c-88 -27 -142 -112 -135 -215 5 -84 40 -138 111 -171 68
-31 120 -31 186 2 61 31 100 82 108 143 l6 41 226 0 c379 0 455 -19 530 -132
22 -32 49 -86 60 -120 11 -35 205 -808 431 -1718 225 -910 421 -1693 436
-1740 46 -149 97 -230 185 -295 46 -34 56 -45 45 -54 -7 -6 -26 -39 -42 -74
-26 -56 -29 -72 -29 -167 0 -94 3 -111 28 -164 54 -115 139 -192 255 -230 39
-13 77 -17 145 -14 78 2 102 8 157 34 195 93 288 332 206 529 -9 20 -16 39
-16 41 0 2 134 4 298 4 l298 0 -24 -73 c-57 -169 9 -370 153 -465 86 -57 148
-74 255 -70 81 3 104 7 161 34 165 79 260 261 230 441 -12 69 -48 151 -82 189
-11 12 -19 35 -19 57 0 24 -8 45 -24 64 l-24 28 -864 6 c-622 4 -873 9 -898
17 -93 31 -145 90 -184 210 -25 76 -96 351 -96 371 0 7 305 12 955 13 l955 3
28 30 c23 24 108 239 396 1000 201 534 369 984 372 1001 8 43 -19 92 -61 110
-29 12 -271 14 -1609 14 -1491 0 -1575 1 -1580 18 -3 9 -52 208 -110 442 -57
234 -115 455 -128 491 -82 224 -214 339 -422 368 -91 13 -827 13 -869 1z
m4502 -1582 c-11 -29 -158 -420 -328 -868 l-308 -815 -925 -3 -925 -2 -82 332
c-45 183 -142 575 -215 871 l-133 537 1468 0 1468 0 -20 -52z m-1892 -2743
c32 -16 61 -41 79 -67 25 -35 29 -51 29 -108 0 -57 -4 -73 -29 -108 -32 -47
-112 -92 -163 -92 -122 0 -222 127 -192 244 21 86 107 154 195 156 16 0 53
-11 81 -25z m1332 -1 c76 -38 106 -87 106 -175 0 -59 -4 -73 -30 -110 -68 -96
-198 -116 -286 -42 -114 96 -82 289 58 338 57 21 93 18 152 -11z"/>
</g>
</svg>
